<svg xmlns="http://www.w3.org/2000/svg" width="32" height="32" viewBox="0 0 32 32">
  <path fill="#ff6e2b" d="M31 16a15 15 0 0 1-15 15A15 15 0 0 1 1 16 15 15 0 0 1 16 1a15 15 0 0 1 15 15z" />
  <path fill="#000000" d="M16 0C7.183 0 0 7.165 0 16s7.183 16 16 16 16-7.165 16-16S24.817 0 16 0zm0 1.834c4.014 0 7.622 1.659 10.201 4.318-5.456 3.11-10.138 6.748-14.111 10.864-.868-1.48-1.135-3.346-.756-5.696.42-2.598 1.664-5.764 3.729-9.44.31-.02.62-.046.937-.046zm-2.467.227c-1.846 3.417-3.029 6.442-3.451 9.058-.435 2.693-.075 5 1.107 6.824-.71.77-1.395 1.56-2.058 2.362-3.018-4.265-4.393-8.65-4.164-13.223a14.16 14.16 0 0 1 8.566-5.021zm13.528 5.058A14.088 14.088 0 0 1 30.199 16c0 1.268-.181 2.492-.494 3.662-4.484.837-8.19 1.111-11.014.793-2.737-.308-4.642-1.134-5.836-2.414 3.97-4.143 8.676-7.8 14.206-10.922zM3.635 9.043c.213 4.277 1.768 8.41 4.633 12.353-.442.563-.891 1.12-1.311 1.698-.86-.846-1.704-1.506-2.557-1.8a3.396 3.396 0 0 0-1.623-.153 14.079 14.079 0 0 1 .857-12.098zm8.34 9.91c1.458 1.532 3.682 2.436 6.574 2.762 2.866.323 6.458.064 10.717-.69a14.163 14.163 0 0 1-4.254 5.926c-6.808.569-11.758-1.295-15.117-5.592a55.713 55.713 0 0 1 2.08-2.406zm-8.52 3.412c.168.021.345.065.533.13.61.209 1.393.9 2.188 1.689-.27.39-.56.769-.846 1.15a14.141 14.141 0 0 1-2.006-2.967c.045.003.086-.007.131-.002zm5.6.076c3.247 3.984 7.925 5.961 13.847 5.94A14.17 14.17 0 0 1 16 30.166c-2.01 0-3.916-.418-5.646-1.166-.096-1.521-1.002-3.182-2.52-4.96.39-.544.81-1.069 1.22-1.599zm-2 2.688c.957 1.176 1.566 2.224 1.847 3.135a14.205 14.205 0 0 1-2.677-1.998c.28-.377.566-.75.83-1.137z" />
</svg>
