<?xml version="1.0" encoding="utf-8"?>
<!-- Generator: Adobe Illustrator 22.1.0, SVG Export Plug-In . SVG Version: 6.00 Build 0)  -->
<svg version="1.1" xmlns="http://www.w3.org/2000/svg" xmlns:xlink="http://www.w3.org/1999/xlink" x="0px" y="0px"
	 viewBox="0 0 400 54" style="enable-background:new 0 0 400 54;" xml:space="preserve">
<style type="text/css">
	.st0{fill:#FF6E2B;}
</style>
<g id="Text">
	<path d="M77.6,14.4h-3.3v6.5h3.4c1.4,0,2.5-0.3,3.2-0.8c0.7-0.6,1-1.4,1-2.6C82,15.5,80.5,14.4,77.6,14.4z M74.3,4.7v5.5h3.1
		c1.4,0,2.5-0.2,3.1-0.7c0.6-0.4,1-1.2,1-2.1c0-1-0.3-1.7-1-2.1c-0.7-0.4-1.8-0.6-3.3-0.6L74.3,4.7z M69.1,25.2V0.4h7.7
		c3.5,0,6.1,0.5,7.7,1.5s2.4,2.6,2.4,4.8c0,1.5-0.3,2.7-1,3.6c-0.7,1-1.6,1.5-2.8,1.7v0.2c1.6,0.3,2.7,1,3.4,1.9
		c0.7,1,1.1,2.2,1.1,3.9c0,2.3-0.8,4.1-2.5,5.3c-1.6,1.3-3.9,1.9-6.7,1.9L69.1,25.2z M112.2,25.2h-5.7l-1.8-5.9h-9.1l-1.8,5.9h-5.7
		l8.8-25h6.4L112.2,25.2z M97,14.9h6.5l-2.8-9.1c-0.2-0.6-0.3-1.1-0.5-1.7C99.9,5.5,98.8,9.1,97,14.9z M129.6,18.4
		c0,2.2-0.8,4-2.4,5.3s-3.8,1.9-6.6,1.9s-5.2-0.5-7.2-1.5v-4.9c1.7,0.7,3.1,1.3,4.3,1.6c1.2,0.3,2.3,0.5,3.3,0.5s1.9-0.2,2.5-0.7
		c0.6-0.4,0.9-1.1,0.9-2c0-0.5-0.1-0.9-0.4-1.3c-0.3-0.4-0.7-0.7-1.1-1.1c-0.5-0.3-1.5-0.9-3.2-1.6c-1.6-0.8-2.8-1.5-3.5-2.1
		c-1.7-1.4-2.5-3.2-2.5-5.4c0-2.2,0.7-3.9,2.2-5.1c1.5-1.3,3.5-1.9,6.2-1.9c2.2,0,4.7,0.6,7.4,1.8l-1.7,4.1
		c-1.3-0.5-2.4-0.9-3.3-1.1c-0.9-0.2-1.8-0.3-2.7-0.3c-0.9,0-1.6,0.2-2.2,0.7c-0.5,0.5-0.8,1.1-0.8,1.8c0,0.9,0.4,1.6,1.3,2.2
		c0.4,0.3,1.6,0.9,3.3,1.7c2.3,1.1,3.9,2.2,4.8,3.3C129.2,15.4,129.6,16.7,129.6,18.4L129.6,18.4z M139,25.2h-5.3V0.4h5.3v11.4
		l2.1-2.9l6.7-8.5h5.8l-8.7,11l8.8,13.9h-6l-6.5-10.5l-2.2,1.6L139,25.2z M170.7,20.9v4.3h-14.3V0.4h14.3v4.3h-9v5.5h8.4v4.3h-8.4
		v6.4H170.7z M185.1,4.8v20.5h-5.3V4.8h-6.7V0.4h18.8v4.4L185.1,4.8z M203.8,14.4h-3.2v6.5h3.4c1.4,0,2.5-0.3,3.2-0.8
		c0.7-0.6,1-1.4,1-2.6C208.2,15.5,206.7,14.4,203.8,14.4L203.8,14.4z M200.5,4.7v5.5h3.1c1.4,0,2.5-0.2,3.1-0.7c0.6-0.4,1-1.2,1-2.1
		c0-1-0.3-1.7-1-2.1c-0.7-0.4-1.8-0.6-3.3-0.6L200.5,4.7z M195.3,25.2V0.4h7.7c3.5,0,6.1,0.5,7.7,1.5s2.4,2.6,2.4,4.8
		c0,1.5-0.3,2.7-1,3.6c-0.7,1-1.6,1.5-2.8,1.7v0.2c1.6,0.3,2.7,1,3.4,1.9c0.7,1,1.1,2.2,1.1,3.9c0,2.3-0.8,4.1-2.5,5.3
		s-3.9,1.9-6.7,1.9L195.3,25.2z M238.4,25.2h-5.7l-1.8-5.9h-9.1l-1.8,5.9h-5.7l8.8-25h6.4L238.4,25.2L238.4,25.2z M223.2,14.9h6.5
		l-2.8-9.1c-0.2-0.6-0.3-1.1-0.5-1.7C226.1,5.5,225,9.1,223.2,14.9L223.2,14.9z M256.5,25.2h-15.3V0.4h5.3v20.5h10.1V25.2z
		 M275.8,25.2h-15.3V0.4h5.3v20.5h10.1V25.2z M278.5,0.4h4.8l0.2,0.4c-0.6,2.2-1.6,4.9-3,8.1h-3.7C277.6,5.6,278.1,2.7,278.5,0.4
		L278.5,0.4z M303.9,18.4c0,2.2-0.8,4-2.4,5.3c-1.6,1.3-3.8,1.9-6.6,1.9s-5.2-0.5-7.2-1.5v-4.9c1.7,0.7,3.1,1.3,4.3,1.6
		c1.2,0.3,2.3,0.5,3.3,0.5c1.1,0,1.9-0.2,2.5-0.7c0.6-0.4,0.9-1.1,0.9-2c0-0.5-0.1-0.9-0.4-1.3c-0.3-0.4-0.7-0.7-1.1-1.1
		c-0.5-0.3-1.5-0.9-3.2-1.6c-1.6-0.8-2.8-1.5-3.5-2.1C288.8,11,288,9.2,288,7c0-2.2,0.7-3.9,2.2-5.1s3.5-1.9,6.2-1.9
		c2.2,0,4.7,0.6,7.4,1.8l-1.7,4.1c-1.3-0.5-2.4-0.9-3.3-1.1c-0.9-0.2-1.8-0.3-2.7-0.3c-0.9,0-1.6,0.2-2.2,0.7
		c-0.5,0.5-0.8,1.1-0.8,1.8c0,0.9,0.4,1.6,1.3,2.2c0.4,0.3,1.6,0.9,3.3,1.7c2.3,1.1,3.9,2.2,4.8,3.3
		C303.5,15.4,303.9,16.7,303.9,18.4L303.9,18.4z M80.8,53.8h-2.3l-1.3-3.6h-5L71,53.8h-2.2l4.9-13.1h2.3L80.8,53.8L80.8,53.8z
		 M72.9,48.4h3.8c-0.6-1.6-1.1-3.3-1.7-4.9c-0.1-0.3-0.2-0.6-0.2-0.9c-0.2,0.7-0.4,1.5-0.7,2.4L72.9,48.4L72.9,48.4z M91.5,47.5v6.3
		h-1.9v-13h3l3.6,10.4h0.1l3.7-10.4h3v13h-2.1v-6.5c0-0.5,0-1.3,0.1-2.4s0.1-1.8,0.1-2H101L97,53.8h-1.9l-3.8-10.9h-0.1
		C91.4,44.5,91.5,46.1,91.5,47.5L91.5,47.5z M119.6,47.6c0.9,0.7,1.3,1.6,1.3,2.7s-0.4,2.1-1.2,2.7c-0.8,0.7-2,1-3.5,1
		s-2.7-0.2-3.6-0.7v-2c1.3,0.6,2.5,0.9,3.8,0.9c0.8,0,1.4-0.2,1.9-0.5c0.4-0.3,0.6-0.8,0.6-1.3c0-0.5-0.2-1-0.5-1.3
		c-0.4-0.3-1.1-0.7-2.3-1.2c-1.2-0.5-2-1-2.5-1.7c-0.5-0.6-0.7-1.4-0.7-2.2c0-1.1,0.4-1.9,1.2-2.6c0.8-0.6,1.8-0.9,3.1-0.9
		s2.5,0.3,3.8,0.8l-0.7,1.7c-1.2-0.5-2.2-0.7-3.1-0.7c-0.7,0-1.2,0.1-1.6,0.4c-0.4,0.3-0.5,0.7-0.5,1.2c0,0.3,0.1,0.6,0.2,0.9
		c0.2,0.2,0.4,0.5,0.7,0.7c0.3,0.2,0.9,0.5,1.8,0.9C118.5,46.9,119.2,47.2,119.6,47.6L119.6,47.6z M134.9,42.6v11.2h-2.1V42.6H129
		v-1.8h9.8v1.8L134.9,42.6z M155.1,52v1.8h-7.4v-13h7.4v1.8h-5.2v3.5h4.9v1.8h-4.9V52L155.1,52z M167.1,48.6v5.2H165v-13h3.7
		c1.7,0,2.9,0.3,3.7,0.9c0.8,0.6,1.2,1.6,1.2,2.9c0,1.6-0.8,2.8-2.5,3.5l3.7,5.8h-2.4l-3.1-5.2L167.1,48.6z M167.1,42.6v4.3h1.5
		c1,0,1.7-0.2,2.1-0.5c0.5-0.4,0.7-0.9,0.7-1.6c0-0.7-0.2-1.3-0.7-1.6s-1.2-0.5-2.2-0.5H167.1z M187.3,52c3.1,0,4.7-1.6,4.7-4.8
		c0-3.1-1.5-4.7-4.4-4.7h-1.8V52H187.3z M187.7,40.8c2.1,0,3.7,0.6,4.8,1.7c1.2,1.1,1.7,2.7,1.7,4.8s-0.6,3.7-1.8,4.8
		s-2.9,1.7-5.2,1.7h-3.6v-13L187.7,40.8L187.7,40.8z M214,53.8h-2.3l-1.3-3.6h-5l-1.3,3.6H202l4.9-13.1h2.3L214,53.8z M206.1,48.4
		h3.8c-0.6-1.6-1.1-3.3-1.7-4.9c-0.1-0.3-0.2-0.6-0.2-0.9c-0.2,0.7-0.4,1.5-0.7,2.4L206.1,48.4z M224.7,47.5v6.3h-1.9v-13h3
		l3.6,10.4h0.1l3.7-10.4h3v13h-2.1v-6.5c0-0.5,0-1.3,0.1-2.4c0-1.1,0.1-1.8,0.1-2h-0.1l-3.9,10.9h-1.9l-3.8-10.9h-0.1
		C224.6,44.5,224.7,46.1,224.7,47.5L224.7,47.5z"/>
	<path class="st0" d="M324.3,7.1c-2.2-1-4.1-1.5-5.7-1.5s-2.9,0.7-3.8,2c-0.9,1.3-1.3,3.1-1.3,5.4c0,4.8,1.8,7.2,5.5,7.2
		c1.7,0,3.8-0.5,6.3-1.5v5.7c-2.1,0.9-4.4,1.4-7,1.4c-3.8,0-6.6-1.1-8.6-3.3c-2-2.2-3-5.3-3-9.4c0-2.6,0.5-4.8,1.4-6.8
		c1-2,2.4-3.5,4.2-4.5s4-1.6,6.4-1.6c2.7,0,5.3,0.6,7.7,1.8L324.3,7.1z M328.1,12.8c0-4.2,1-7.3,3.1-9.5c2.1-2.2,5.1-3.3,9-3.3
		c4,0,6.9,1.1,9,3.2s3.1,5.3,3.1,9.5c0,4.2-1,7.4-3.1,9.6c-2,2.2-5,3.3-9,3.3c-3.9,0-6.9-1.1-9-3.3
		C329.2,20.1,328.1,16.9,328.1,12.8L328.1,12.8z M340.2,5.5c-3.4,0-5,2.4-5,7.2c0,4.8,1.7,7.2,5,7.2c1.7,0,3-0.6,3.8-1.8
		c0.8-1.2,1.2-3,1.2-5.5c0-2.5-0.4-4.3-1.2-5.5S341.9,5.5,340.2,5.5L340.2,5.5z M355.5,12.8c0-4.2,1-7.3,3.1-9.5
		c2.1-2.2,5.1-3.3,9-3.3c4,0,6.9,1.1,9,3.2s3.1,5.3,3.1,9.5c0,4.2-1,7.4-3.1,9.6c-2,2.2-5,3.3-9,3.3c-3.9,0-6.9-1.1-9-3.3
		C356.5,20.1,355.5,16.9,355.5,12.8L355.5,12.8z M367.6,5.5c-3.4,0-5,2.4-5,7.2c0,4.8,1.7,7.2,5,7.2c1.7,0,3-0.6,3.8-1.8
		c0.8-1.2,1.2-3,1.2-5.5c0-2.5-0.4-4.3-1.2-5.5C370.5,6.1,369.2,5.5,367.6,5.5L367.6,5.5z M400,25.2h-16.3V0.4h6.7v19.4h9.6V25.2z"
		/>
</g>
<g id="Icon">
	<path class="st0" d="M52.3,27C52.3,41,41,52.3,27,52.3c0,0,0,0,0,0C13,52.3,1.7,41,1.7,27c0,0,0,0,0,0C1.7,13,13,1.7,27,1.7
		c0,0,0,0,0,0C41,1.7,52.3,13,52.3,27L52.3,27z"/>
	<path d="M27,0C12.1,0,0,12.1,0,27s12.1,27,27,27s27-12.1,27-27S41.9,0,27,0z M27,3.1c6.8,0,12.9,2.8,17.2,7.3
		C35,15.6,27.1,21.8,20.4,28.7c-1.5-2.5-1.9-5.6-1.3-9.6c0.7-4.4,2.8-9.7,6.3-15.9C25.9,3.1,26.5,3.1,27,3.1z M22.8,3.5
		c-3.1,5.8-5.1,10.9-5.8,15.3c-0.7,4.5-0.1,8.4,1.9,11.5c-1.2,1.3-2.4,2.6-3.5,4C10.3,27.1,8,19.7,8.4,12C12,7.5,17.2,4.5,22.8,3.5z
		 M45.7,12c3.4,4.2,5.3,9.5,5.3,15c0,2.1-0.3,4.2-0.8,6.2c-7.6,1.4-13.8,1.9-18.6,1.3c-4.6-0.5-7.8-1.9-9.8-4.1
		C28.4,23.5,36.3,17.3,45.7,12L45.7,12z M6.1,15.3c0.4,7.2,3,14.2,7.8,20.8c-0.7,1-1.5,1.9-2.2,2.9c-1.5-1.4-2.9-2.5-4.3-3
		c-0.9-0.3-1.8-0.4-2.7-0.3C2.1,29,2.6,21.5,6.1,15.3L6.1,15.3z M20.2,32c2.5,2.6,6.2,4.1,11.1,4.7c4.8,0.5,10.9,0.1,18.1-1.2
		c-1.5,3.9-4,7.4-7.2,10c-11.5,1-19.8-2.2-25.5-9.4C17.8,34.7,19,33.3,20.2,32z M5.8,37.7c0.3,0,0.6,0.1,0.9,0.2
		c1,0.4,2.3,1.5,3.7,2.8C10,41.5,9.5,42.1,9,42.8c-1.3-1.5-2.5-3.2-3.4-5C5.7,37.7,5.8,37.7,5.8,37.7z M15.3,37.9
		c5.5,6.7,13.4,10.1,23.4,10c-3.6,2-7.6,3-11.6,3c-3.4,0-6.6-0.7-9.5-2c-0.2-2.6-1.7-5.4-4.3-8.4C13.9,39.7,14.6,38.8,15.3,37.9
		L15.3,37.9z M11.9,42.4c1.6,2,2.6,3.8,3.1,5.3c-1.6-0.9-3.1-2.1-4.5-3.4C11,43.7,11.5,43.1,11.9,42.4z"/>
</g>
</svg>
