<svg id="Text" xmlns="http://www.w3.org/2000/svg" viewBox="0 0 331.27 54"><defs><style>.cls-1{fill:#ff6e2b;}</style></defs><title>bbscool-logo_text</title><path d="M8.52,14.42H5.27V20.9H8.69a5.17,5.17,0,0,0,3.22-.83,3.07,3.07,0,0,0,1-2.55Q13,14.42,8.52,14.42ZM5.27,4.71v5.51H8.33a5.59,5.59,0,0,0,3.11-.66,2.4,2.4,0,0,0,1-2.13,2.27,2.27,0,0,0-1-2.1A6.68,6.68,0,0,0,8,4.71ZM0,25.25V.38H7.73c3.52,0,6.07.5,7.67,1.5a5.23,5.23,0,0,1,2.4,4.79,6,6,0,0,1-1,3.65A4.18,4.18,0,0,1,14,12.06v.17a5.52,5.52,0,0,1,3.39,1.94A6.36,6.36,0,0,1,18.43,18,6.32,6.32,0,0,1,16,23.35a10.61,10.61,0,0,1-6.66,1.9Zm43.18,0H37.49L35.7,19.33H26.63l-1.8,5.92H19.14l8.77-25h6.44ZM28,14.91h6.48L31.61,5.82c-.16-.55-.32-1.12-.45-1.68Q30.65,6.18,28,14.91Zm32.61,3.44a6.41,6.41,0,0,1-2.42,5.29,10.17,10.17,0,0,1-6.57,1.95,16.23,16.23,0,0,1-7.2-1.49V19.2a32.61,32.61,0,0,0,4.25,1.57,12.51,12.51,0,0,0,3.34.47,4.18,4.18,0,0,0,2.53-.67,2.28,2.28,0,0,0,.91-2A2.14,2.14,0,0,0,55,17.28a4.87,4.87,0,0,0-1.14-1.05,26.36,26.36,0,0,0-3.16-1.65,15.2,15.2,0,0,1-3.54-2.13,6.81,6.81,0,0,1-2.5-5.4,6.37,6.37,0,0,1,2.23-5.14A9.28,9.28,0,0,1,53.06,0a18.61,18.61,0,0,1,7.39,1.76l-1.7,4.1a25.36,25.36,0,0,0-3.31-1.14,11.41,11.41,0,0,0-2.67-.32,3.27,3.27,0,0,0-2.16.68,2.31,2.31,0,0,0-.8,1.84,2.66,2.66,0,0,0,1.34,2.23,34,34,0,0,0,3.35,1.72,13.44,13.44,0,0,1,4.76,3.34,6.52,6.52,0,0,1,1.3,4.12Zm9.37,6.9H64.66V.38h5.27V11.76L72,8.85,78.74.38h5.84l-8.68,11,8.75,13.85h-6L72.14,14.78l-2.21,1.59Zm31.75-4.35v4.35H87.37V.38h14.31V4.71h-9v5.46h8.41v4.31H92.65V20.9ZM116,4.76V25.25h-5.27V4.76H104V.38h18.77V4.76Zm18.69,9.66h-3.25V20.9h3.42a5.12,5.12,0,0,0,3.21-.83,3.07,3.07,0,0,0,1-2.55q0-3.11-4.43-3.1Zm-3.25-9.71v5.51h3.06a5.64,5.64,0,0,0,3.11-.66,2.42,2.42,0,0,0,.95-2.13,2.27,2.27,0,0,0-1-2.1,6.68,6.68,0,0,0-3.33-.62ZM126.2,25.25V.38h7.73q5.28,0,7.68,1.5A5.23,5.23,0,0,1,144,6.67a6.09,6.09,0,0,1-1,3.65,4.22,4.22,0,0,1-2.8,1.74v.17a5.52,5.52,0,0,1,3.39,1.94A6.36,6.36,0,0,1,144.63,18a6.32,6.32,0,0,1-2.47,5.32,10.61,10.61,0,0,1-6.66,1.9Zm43.18,0h-5.69l-1.79-5.92h-9.07L151,25.25h-5.69l8.77-25h6.45l8.82,25ZM154.15,14.91h6.48l-2.81-9.09c-.17-.55-.32-1.12-.46-1.68q-.51,2-3.21,10.77Zm33.3,10.34H172.1V.38h5.27V20.9h10.08Zm19.25,0H191.35V.38h5.28V20.9H206.7ZM209.4.38h4.78l.25.38a54.78,54.78,0,0,1-3,8.14H207.7q1.19-5,1.7-8.52Zm25.43,18a6.41,6.41,0,0,1-2.42,5.29,10.17,10.17,0,0,1-6.57,1.95,16.2,16.2,0,0,1-7.2-1.49V19.2a32.61,32.61,0,0,0,4.25,1.57,12.51,12.51,0,0,0,3.34.47,4.22,4.22,0,0,0,2.53-.67,2.28,2.28,0,0,0,.91-2,2.2,2.2,0,0,0-.41-1.32,4.74,4.74,0,0,0-1.15-1.05A25.16,25.16,0,0,0,225,14.58a15.53,15.53,0,0,1-3.55-2.13,6.83,6.83,0,0,1-2.49-5.4,6.37,6.37,0,0,1,2.23-5.14A9.28,9.28,0,0,1,227.33,0a18.61,18.61,0,0,1,7.39,1.76L233,5.88a25.36,25.36,0,0,0-3.31-1.14A11.47,11.47,0,0,0,227,4.42a3.27,3.27,0,0,0-2.16.68,2.31,2.31,0,0,0-.8,1.84,2.66,2.66,0,0,0,1.34,2.23,34.67,34.67,0,0,0,3.34,1.72,13.4,13.4,0,0,1,4.77,3.34,6.52,6.52,0,0,1,1.3,4.12ZM11.74,53.82H9.47L8.18,50.2h-5L1.91,53.82H-.34L4.54,40.73H6.86l4.88,13.09ZM3.81,48.36h3.8C7,46.72,6.49,45.07,5.94,43.43c-.09-.29-.18-.58-.25-.87A19.28,19.28,0,0,1,5,45l-1.17,3.4Zm18.59-.88v6.34H20.47v-13h3l3.62,10.37h.06l3.72-10.37h3v13H31.83V47.37c0-.53,0-1.34.05-2.44s.07-1.76.09-2h-.08L28,53.82H26.1L22.32,42.93h-.07c.1,1.62.15,3.13.15,4.55Zm28.14.1a3.22,3.22,0,0,1,1.3,2.71A3.29,3.29,0,0,1,50.59,53a5.45,5.45,0,0,1-3.47,1,8.43,8.43,0,0,1-3.63-.68v-2a8.78,8.78,0,0,0,3.77.9,3.05,3.05,0,0,0,1.85-.47,1.49,1.49,0,0,0,.61-1.26,1.66,1.66,0,0,0-.54-1.28A8.48,8.48,0,0,0,46.86,48a6,6,0,0,1-2.5-1.65,3.52,3.52,0,0,1-.72-2.22,3.11,3.11,0,0,1,1.17-2.57,4.68,4.68,0,0,1,3.06-.94,9.47,9.47,0,0,1,3.78.82L51,43.16a8.16,8.16,0,0,0-3.1-.73,2.37,2.37,0,0,0-1.55.44,1.43,1.43,0,0,0-.55,1.19,1.74,1.74,0,0,0,.21.88,2.39,2.39,0,0,0,.72.69,15.06,15.06,0,0,0,1.83.87,8.65,8.65,0,0,1,2,1.08Zm15.32-5V53.82H63.73V42.61H59.9V40.78h9.8v1.83ZM86.07,52v1.81H78.7v-13h7.37v1.8H80.83v3.55h4.92v1.79H80.83V52Zm12-3.4v5.21H95.9v-13h3.67a6.07,6.07,0,0,1,3.74.94,3.4,3.4,0,0,1,1.22,2.86A3.58,3.58,0,0,1,102,48.05l3.69,5.77h-2.43l-3.12-5.21Zm0-6v4.27H99.5a3.45,3.45,0,0,0,2.15-.54,2,2,0,0,0,.68-1.64,1.79,1.79,0,0,0-.71-1.59,3.84,3.84,0,0,0-2.18-.5ZM118.22,52q4.71,0,4.71-4.78c0-3.12-1.46-4.69-4.38-4.69H116.7V52Zm.37-11.25a6.68,6.68,0,0,1,4.85,1.68,6.38,6.38,0,0,1,1.74,4.82,6.35,6.35,0,0,1-1.8,4.84,7.23,7.23,0,0,1-5.16,1.7h-3.65v-13h4Zm26.38,13H142.7l-1.3-3.62h-5l-1.27,3.62h-2.25l4.87-13.09h2.32ZM137,48.36h3.81c-.57-1.64-1.13-3.29-1.68-4.93-.09-.29-.17-.58-.25-.87a19.1,19.1,0,0,1-.7,2.4Zm18.6-.88v6.34h-1.94v-13h3l3.61,10.37h.06l3.73-10.37h3v13h-2.05V47.37c0-.53,0-1.34.05-2.44s.06-1.76.09-2h-.08l-3.91,10.87h-1.89l-3.77-10.89h-.07c.1,1.62.15,3.13.15,4.55Z" transform="translate(0.34)"/><path class="cls-1" d="M255.26,7.07a13.84,13.84,0,0,0-5.69-1.53,4.29,4.29,0,0,0-3.76,2,9.48,9.48,0,0,0-1.34,5.43q0,7.16,5.46,7.16a17.67,17.67,0,0,0,6.31-1.55v5.67a17.19,17.19,0,0,1-7.05,1.38q-5.62,0-8.64-3.27t-3-9.43A14.58,14.58,0,0,1,239,6.11a10.45,10.45,0,0,1,4.22-4.53A12.19,12.19,0,0,1,249.63,0a17.4,17.4,0,0,1,7.69,1.76Zm3.79,5.71q0-6.24,3.1-9.51t9-3.27q5.93,0,9,3.24t3.06,9.54q0,6.28-3.07,9.55c-2,2.17-5,3.26-9,3.26s-6.95-1.1-9-3.29-3.11-5.37-3.11-9.52ZM271.17,5.5q-5.06,0-5.05,7.25t5,7.25a4.33,4.33,0,0,0,3.8-1.76,9.63,9.63,0,0,0,1.23-5.46,9.77,9.77,0,0,0-1.24-5.49,4.27,4.27,0,0,0-3.75-1.79Zm15.22,7.28q0-6.24,3.1-9.51t9-3.27q5.93,0,9,3.24t3.07,9.54q0,6.28-3.07,9.55t-9,3.26q-5.91,0-9-3.29t-3.11-9.52ZM298.51,5.5q-5.06,0-5.05,7.25t5,7.25a4.33,4.33,0,0,0,3.8-1.76,9.63,9.63,0,0,0,1.23-5.46,9.69,9.69,0,0,0-1.24-5.49,4.27,4.27,0,0,0-3.75-1.79Zm32.43,19.75h-16.3V.38h6.73V19.82h9.57Z" transform="translate(0.34)"/></svg>