<svg xmlns="http://www.w3.org/2000/svg" width="400" height="54" viewBox="0 0 400 54">
  <path fill="#ff6e2b" d="M52.313 27A25.313 25.313 0 0 1 27 52.313 25.313 25.313 0 0 1 1.687 27 25.313 25.313 0 0 1 27 1.687 25.313 25.313 0 0 1 52.313 27z" />
  <path fill="#000000" d="M27 0C12.121 0 0 12.09 0 27s12.121 27 27 27 27-12.09 27-27S41.879 0 27 0zm0 3.095c6.774 0 12.862 2.8 17.214 7.287-9.207 5.248-17.108 11.387-23.812 18.332-1.465-2.497-1.915-5.646-1.276-9.612.709-4.384 2.808-9.726 6.293-15.93.523-.033 1.046-.077 1.581-.077zm-4.163.383c-3.115 5.766-5.111 10.87-5.824 15.285-.734 4.545-.126 8.438 1.868 11.516a97.801 97.801 0 0 0-3.472 3.986c-5.093-7.198-7.414-14.597-7.027-22.314a23.895 23.895 0 0 1 14.455-8.473zm22.828 8.535A23.773 23.773 0 0 1 50.961 27c0 2.14-.306 4.205-.834 6.18-7.567 1.412-13.82 1.874-18.586 1.338-4.619-.52-7.833-1.914-9.848-4.074 6.7-6.991 14.64-13.162 23.972-18.43zM6.135 15.26c.359 7.217 2.983 14.192 7.817 20.846-.746.95-1.503 1.89-2.212 2.865-1.451-1.427-2.876-2.541-4.315-3.037a5.73 5.73 0 0 0-2.739-.259A23.758 23.758 0 0 1 6.132 15.26zm14.073 16.723c2.46 2.585 6.213 4.11 11.093 4.661 4.837.545 10.898.108 18.085-1.164a23.9 23.9 0 0 1-7.178 10c-11.489.96-19.842-2.185-25.51-9.437a94.016 94.016 0 0 1 3.51-4.06zM5.83 37.741c.284.035.582.11.9.22 1.03.352 2.35 1.518 3.692 2.85-.456.658-.945 1.297-1.428 1.94a23.863 23.863 0 0 1-3.385-5.007c.076.005.145-.011.221-.003zm9.45.128c5.48 6.723 13.374 10.06 23.367 10.024A23.912 23.912 0 0 1 27 50.905c-3.392 0-6.608-.705-9.528-1.968-.162-2.566-1.69-5.37-4.252-8.37.658-.917 1.367-1.803 2.059-2.698zm-3.375 4.536c1.615 1.985 2.643 3.753 3.117 5.29a23.97 23.97 0 0 1-4.517-3.371c.472-.636.955-1.266 1.4-1.919z"/>
  <path fill="#000000" d="M77.588 14.42h-3.251v6.482h3.42c1.45 0 2.52-.277 3.214-.831.692-.554 1.039-1.405 1.039-2.551 0-2.067-1.474-3.1-4.422-3.1zm-3.251-9.714v5.518h3.062c1.436 0 2.472-.22 3.108-.661.637-.441.955-1.153.955-2.136 0-.982-.347-1.682-1.04-2.097-.693-.416-1.801-.624-3.326-.624zm-5.273 20.543V.378h7.73c3.515 0 6.073.5 7.673 1.502 1.6 1.002 2.4 2.6 2.4 4.791 0 1.475-.346 2.69-1.04 3.648-.692.958-1.625 1.537-2.796 1.739v.17c1.55.34 2.68.989 3.392 1.946.712.958 1.068 2.243 1.068 3.856 0 2.28-.822 4.054-2.467 5.32-1.644 1.266-3.864 1.9-6.662 1.9zm43.18 0h-5.688l-1.796-5.915H95.69l-1.796 5.915h-5.688L96.974.284h6.444zM97.012 14.911h6.482l-2.816-9.09a28.548 28.548 0 0 1-.453-1.682c-.34 1.36-1.412 4.951-3.213 10.772zm32.615 3.44c0 2.23-.806 3.994-2.419 5.292-1.613 1.298-3.805 1.946-6.577 1.946s-5.172-.497-7.2-1.493v-4.894c1.675.73 3.093 1.253 4.252 1.568 1.16.315 2.274.473 3.345.473 1.071 0 1.912-.224 2.523-.671.611-.448.917-1.106.917-1.975 0-.504-.139-.942-.416-1.314-.277-.371-.658-.724-1.143-1.058-.485-.334-1.537-.882-3.156-1.644-1.62-.763-2.8-1.471-3.544-2.126-1.663-1.437-2.495-3.238-2.495-5.406 0-2.167.744-3.88 2.23-5.14 1.487-1.26 3.547-1.89 6.18-1.89 2.23 0 4.694.586 7.39 1.758l-1.701 4.1c-1.323-.541-2.425-.92-3.307-1.133a11.292 11.292 0 0 0-2.675-.322c-.9 0-1.619.227-2.154.68-.536.454-.803 1.065-.803 1.834 0 .882.447 1.625 1.342 2.23.44.302 1.556.876 3.345 1.72 2.305 1.109 3.893 2.224 4.762 3.345.87 1.122 1.304 2.495 1.304 4.12zm9.37 6.898h-5.273V.378h5.273v11.377l2.06-2.91 6.747-8.467h5.84l-8.675 11.018 8.75 13.853h-5.99l-6.52-10.47-2.212 1.588zm31.746-4.347v4.347h-14.306V.378h14.306v4.328h-9.033v5.462h8.41v4.309h-8.41v6.425zm14.36-16.14V25.25h-5.273V4.763h-6.747V.378h18.766v4.385zm18.686 9.658h-3.25v6.482h3.42c1.45 0 2.52-.277 3.213-.831.693-.554 1.04-1.405 1.04-2.551 0-2.067-1.474-3.1-4.423-3.1zm-3.25-9.714v5.518h3.062c1.436 0 2.472-.22 3.108-.661.637-.441.955-1.153.955-2.136 0-.982-.347-1.682-1.04-2.097-.693-.416-1.801-.624-3.326-.624zm-5.273 20.543V.378h7.73c3.515 0 6.073.5 7.673 1.502 1.6 1.002 2.4 2.6 2.4 4.791 0 1.475-.347 2.69-1.04 3.648-.692.958-1.625 1.537-2.797 1.739v.17c1.55.34 2.68.989 3.393 1.946.712.958 1.068 2.243 1.068 3.856 0 2.28-.823 4.054-2.467 5.32-1.644 1.266-3.865 1.9-6.662 1.9zm43.18 0h-5.688l-1.796-5.915h-9.071l-1.796 5.915h-5.688L223.176.284h6.444l8.826 24.965zm-15.232-10.338h6.482l-2.816-9.09a28.627 28.627 0 0 1-.454-1.682c-.34 1.36-1.41 4.951-3.213 10.772zM256.51 25.25h-15.347V.378h5.273v20.524h10.074zm19.254 0h-15.347V.378h5.273v20.524h10.074zM278.462.378h4.781l.246.378c-.567 2.217-1.562 4.933-2.986 8.145h-3.742c.794-3.326 1.36-6.167 1.7-8.523zm25.434 17.973c0 2.23-.806 3.994-2.42 5.292-1.612 1.298-3.804 1.946-6.576 1.946s-5.172-.497-7.2-1.493v-4.894c1.675.73 3.092 1.253 4.252 1.568 1.159.315 2.274.473 3.345.473 1.07 0 1.912-.224 2.523-.671.61-.448.916-1.106.916-1.975 0-.504-.138-.942-.415-1.314-.278-.371-.659-.724-1.144-1.058-.485-.334-1.537-.882-3.156-1.644-1.619-.763-2.8-1.471-3.544-2.126-1.663-1.437-2.494-3.238-2.494-5.406 0-2.167.743-3.88 2.23-5.14 1.487-1.26 3.547-1.89 6.18-1.89 2.23 0 4.693.586 7.39 1.758l-1.701 4.1c-1.323-.541-2.426-.92-3.308-1.133a11.292 11.292 0 0 0-2.674-.322c-.9 0-1.619.227-2.155.68-.535.454-.803 1.065-.803 1.834 0 .882.448 1.625 1.342 2.23.441.302 1.556.876 3.345 1.72 2.306 1.109 3.894 2.224 4.763 3.345.87 1.122 1.304 2.495 1.304 4.12zm-223.09 35.47h-2.268l-1.299-3.616h-4.994l-1.269 3.617h-2.249l4.876-13.091h2.318l4.886 13.09zm-7.937-5.46h3.806A465.24 465.24 0 0 1 75 43.426a15.497 15.497 0 0 1-.248-.862c-.159.72-.393 1.52-.704 2.398l-1.179 3.4zm18.595-.882v6.343h-1.932V40.78h3.002l3.617 10.375h.06l3.726-10.375h3.012v13.04h-2.051v-6.45c0-.53.017-1.343.05-2.443s.062-1.76.089-1.977h-.08l-3.914 10.87H95.16l-3.775-10.89h-.07c.1 1.618.149 3.135.149 4.548zm28.138.1c.865.654 1.298 1.557 1.298 2.71s-.416 2.06-1.249 2.72c-.832.66-1.988.991-3.468.991s-2.689-.228-3.627-.684v-2.021c1.268.6 2.524.901 3.766.901.826 0 1.443-.156 1.853-.47a1.5 1.5 0 0 0 .614-1.254c0-.522-.181-.95-.545-1.283-.363-.334-1.136-.74-2.319-1.219-1.182-.479-2.015-1.029-2.497-1.65-.482-.621-.723-1.36-.723-2.22 0-1.09.388-1.947 1.164-2.571.776-.625 1.799-.937 3.067-.937 1.268 0 2.527.274 3.776.823l-.684 1.744c-1.17-.49-2.203-.733-3.102-.733-.674 0-1.192.147-1.556.44-.363.294-.545.693-.545 1.195 0 .343.07.637.208.882.159.25.398.479.719.683.32.205.931.496 1.833.872.902.377 1.574.737 2.017 1.08zm15.324-4.965v11.208h-2.13V42.614h-3.835V40.78h9.8v1.833zm20.21 9.394v1.814h-7.372V40.78h7.372v1.803h-5.242v3.548h4.915v1.784h-4.915v4.092zm11.956-3.399v5.213h-2.13V40.78h3.676c1.678 0 2.923.313 3.736.94.812.629 1.218 1.583 1.218 2.865 0 1.618-.845 2.775-2.536 3.468l3.686 5.768h-2.428l-3.121-5.213zm0-6.025v4.261h1.476c.978 0 1.693-.18 2.146-.54.452-.36.679-.907.679-1.64 0-.733-.237-1.263-.709-1.59-.472-.327-1.2-.491-2.185-.491zm20.19 9.444c3.138 0 4.707-1.592 4.707-4.776 0-3.125-1.46-4.688-4.38-4.688h-1.843v9.464zm.376-11.247c2.075 0 3.69.56 4.846 1.68 1.156 1.119 1.735 2.724 1.735 4.815s-.598 3.705-1.794 4.841c-1.196 1.136-2.917 1.705-5.163 1.705h-3.647V40.78h4.024zm26.374 13.04h-2.269l-1.298-3.616h-4.994l-1.269 3.617h-2.25l4.876-13.091h2.32zm-7.937-5.46h3.805a468.275 468.275 0 0 1-1.675-4.935 15.58 15.58 0 0 1-.247-.862c-.159.72-.393 1.52-.704 2.398zm18.595-.882v6.343h-1.933V40.78h3.003l3.617 10.375h.06l3.725-10.375h3.013v13.04h-2.051v-6.45c0-.53.016-1.343.05-2.443.032-1.1.062-1.76.088-1.977h-.079l-3.914 10.87h-1.883l-3.776-10.89h-.069c.1 1.618.149 3.135.149 4.548z" />
  <path fill="#ff6e2b" d="M324.322 7.068c-2.18-1.02-4.076-1.53-5.689-1.53-1.613 0-2.866.655-3.76 1.965-.896 1.31-1.343 3.118-1.343 5.424 0 4.775 1.82 7.163 5.462 7.163 1.663 0 3.767-.517 6.312-1.55v5.67c-2.066.92-4.416 1.38-7.049 1.38-3.755 0-6.634-1.09-8.637-3.27-1.99-2.18-2.986-5.323-2.986-9.43-.025-2.558.45-4.817 1.427-6.776.976-1.96 2.384-3.471 4.224-4.536 1.84-1.065 3.975-1.584 6.407-1.559a17.5 17.5 0 0 1 7.692 1.758zm3.794 5.708c0-4.158 1.033-7.327 3.1-9.506C333.282 1.09 336.29 0 340.24 0c3.95 0 6.945 1.08 8.986 3.241 2.041 2.161 3.062 5.34 3.062 9.535 0 4.196-1.024 7.38-3.071 9.553-2.047 2.174-5.04 3.26-8.977 3.26-3.937 0-6.942-1.096-9.015-3.288-2.073-2.192-3.109-5.367-3.109-9.525zM340.231 5.5c-3.365 0-5.047 2.416-5.047 7.248 0 4.831 1.67 7.247 5.009 7.247 1.713 0 2.98-.586 3.798-1.757.82-1.172 1.229-2.993 1.229-5.462 0-2.47-.413-4.3-1.238-5.49-.825-1.19-2.076-1.786-3.752-1.786zm15.228 7.276c0-4.158 1.033-7.327 3.1-9.506 2.066-2.18 5.074-3.27 9.024-3.27 3.95 0 6.945 1.08 8.986 3.241 2.041 2.161 3.062 5.34 3.062 9.535 0 4.196-1.024 7.38-3.071 9.553-2.048 2.174-5.04 3.26-8.977 3.26-3.938 0-6.943-1.096-9.015-3.288-2.073-2.192-3.109-5.367-3.109-9.525zM367.573 5.5c-3.364 0-5.046 2.416-5.046 7.248 0 4.831 1.67 7.247 5.008 7.247 1.714 0 2.98-.586 3.8-1.757.818-1.172 1.228-2.993 1.228-5.462 0-2.47-.413-4.3-1.238-5.49-.826-1.19-2.076-1.786-3.752-1.786zM400 25.25h-16.291V.377h6.728v19.447H400z" />
</svg>
