<svg xmlns="http://www.w3.org/2000/svg" viewBox="0 0 54 54"><defs><style>.cls-1{fill:#ff6e2b;}</style></defs><title>bbscool-logo_ball</title><g id="Icon"><path class="cls-1" d="M52.31,27A25.31,25.31,0,0,1,27,52.31h0A25.31,25.31,0,0,1,1.69,27h0A25.31,25.31,0,0,1,27,1.69h0A25.31,25.31,0,0,1,52.31,27Z"/><path d="M27,0A27,27,0,1,0,54,27,27,27,0,0,0,27,0Zm0,3.1a23.87,23.87,0,0,1,17.21,7.28A105.78,105.78,0,0,0,20.4,28.71c-1.46-2.49-1.91-5.64-1.27-9.61.7-4.38,2.8-9.72,6.29-15.93C25.94,3.14,26.46,3.1,27,3.1Zm-4.16.38C19.72,9.24,17.73,14.35,17,18.76s-.12,8.44,1.87,11.52q-1.78,1.95-3.47,4C10.32,27.07,8,19.67,8.38,12A23.89,23.89,0,0,1,22.84,3.48ZM45.67,12A23.76,23.76,0,0,1,51,27a24.25,24.25,0,0,1-.83,6.18c-7.57,1.41-13.82,1.87-18.59,1.34-4.62-.52-7.83-1.92-9.85-4.08A103.06,103.06,0,0,1,45.67,12ZM6.14,15.26c.35,7.22,3,14.19,7.81,20.85-.74,1-1.5,1.89-2.21,2.86a12.39,12.39,0,0,0-4.32-3,5.74,5.74,0,0,0-2.73-.25A23.74,23.74,0,0,1,6.13,15.26ZM20.21,32c2.46,2.59,6.21,4.11,11.09,4.66s10.9.11,18.09-1.16a24,24,0,0,1-7.18,10c-11.49,1-19.84-2.19-25.51-9.44C17.83,34.66,19,33.3,20.21,32ZM5.83,37.74a4.89,4.89,0,0,1,.9.22,12.25,12.25,0,0,1,3.69,2.85c-.45.66-.94,1.3-1.43,1.94a24,24,0,0,1-3.38-5C5.68,37.75,5.75,37.73,5.83,37.74Zm9.45.13c5.48,6.72,13.37,10.06,23.37,10a24.09,24.09,0,0,1-21.18,1c-.16-2.57-1.69-5.37-4.25-8.37.66-.92,1.37-1.81,2.06-2.7ZM11.9,42.4A16.52,16.52,0,0,1,15,47.69a24,24,0,0,1-4.52-3.37C11,43.69,11.46,43.06,11.9,42.4Z"/></g></svg>