<svg height="100" viewBox="0 0 100 100" width="100" xmlns="http://www.w3.org/2000/svg"><path d="m86.887 50a36.888 36.888 0 0 1 -36.887 36.887 36.888 36.888 0 0 1 -36.887-36.887 36.888 36.888 0 0 1 36.887-36.887 36.888 36.888 0 0 1 36.887 36.887z" fill="#fff"/><path d="m79.317 6.77c-.418-.025-.753.205-1.094.42a3.646 3.646 0 0 0 -.57.434.89.89 0 0 0 -.168.193c-.39.675-.191 1.262-.38 2.015-.086.336-.926.62-.437 1.15.181.197.692.614 1.082 1.028.567.604.923 1.715 1.044 2.648.476 3.67-.055 7.365-.693 11.007-.037.207-.077.423-.204.591-.37.487-1.506.673-2.05.856-.95.32-1.879.705-2.788 1.13-1.826.856-3.57 1.88-5.31 2.898-.55.322-1.115.656-1.501 1.164-1.09 1.435.251 3.497 1.617 4.166 2.594 1.268 5.763-1.528 7.894-2.786a50.063 50.063 0 0 0 5.783-3.985c.226-.181.456-.37.593-.626.147-.272.173-.59.196-.899.284-3.975.216-7.953.069-11.949-.042-1.099-.651-2.036-.68-3.052-.018-.648.432-1.169.55-1.784a6.083 6.083 0 0 0 0-2.048c-.228-1.2-1.36-1.743-2.303-2.316-.234-.143-.394-.241-.65-.256zm14.191 33.259c-.775.035-1.157.52-1.89.766-.327.11-1.02-.445-1.199.256-.066.26-.14.915-.274 1.469-.198.806-.935 1.708-1.65 2.316-2.812 2.386-6.192 3.94-9.583 5.368-.193.082-.395.164-.604.146-.606-.05-1.377-.907-1.824-1.269a26.395 26.395 0 0 0 -2.456-1.747c-1.703-1.08-3.5-2.002-5.295-2.922-.566-.291-1.153-.587-1.787-.638-1.79-.145-2.788 2.104-2.608 3.62.344 2.88 4.393 4.046 6.6 5.168a49.916 49.916 0 0 0 6.463 2.733c.274.095.556.188.844.165.307-.023.588-.173.857-.322 3.478-1.91 6.77-4.119 10.032-6.405.897-.629 1.352-1.652 2.186-2.225.532-.366 1.211-.267 1.79-.501a6 6 0 0 0 1.71-1.108c.882-.84.724-2.093.693-3.201-.008-.276-.012-.462-.138-.688-.206-.366-.577-.525-.942-.698a3.656 3.656 0 0 0 -.673-.245.884.884 0 0 0 -.252-.038z" fill="#d4a181"/><path d="m64.078 41.555c.233.115.477.215.739.294.992.298 2.036.311 3.05.117 2.217-.426 4.297-1.418 6.513-1.858.072-.014.148-.03.201-.08.058-.057.075-.143.083-.223.058-.625-.306-1.212-.715-1.687s-.886-.914-1.136-1.49c-.582-1.345.26-2.852.368-4.315a4.334 4.334 0 0 0 -.51-2.37c-.125-.232-.281-.461-.508-.596-.67-.398-1.365-.294-1.657-1.187-.073-.225-.095-.469-.21-.675-1.326-2.368-3.17.089-4.398.792-1.618.923-3.544 1.303-4.937 2.606-1.138 1.063-1.705 2.204-2.055 3.708-.083.353-.163.73-.032 1.068.084.214.245.387.364.585.228.38.244.958.404 1.381a6.223 6.223 0 0 0 .756 1.414c.53.743 1.046.991 1.798 1.404.657.361 1.228.792 1.882 1.112" fill="#c74545"/><path d="m57.62 28.327a6.103 6.103 0 0 0 -.874.046c-2.056.262-3.783 1.609-5.579 2.648-.436.253-.885.493-1.252.84l-.016.015c-.585.565-.745 1.43-.912 2.197a221.073 221.073 0 0 1 -.67 2.994c-.503 2.176-1.084 4.332-1.608 6.503-.4 1.662-.382 3.227-.98 4.843-1.615 4.356-3.485 8.653-5.466 12.85-1.558 3.303-3.265 6.57-5.571 9.394s-5.264 5.206-8.725 6.323c-.262.084-.54.179-.813.28a36.888 36.888 0 0 0 24.858 9.693 36.888 36.888 0 0 0 21.682-7.1c.355-8.946 1.095-17.824.14-26.89a49.922 49.922 0 0 1 -.896-.401c-.85-.432-1.973-.874-3.052-1.414.889-.605 2.12-.794 3.101-1.33a4.302 4.302 0 0 0 1.707-1.714c.126-.23.233-.486.222-.75-.028-.783-.49-1.315.1-2.045.146-.183.338-.333.448-.542 1.266-2.402-1.79-2.633-3.04-3.292-.344-.18-.672-.387-.996-.601-.137-1.502-.194-2.984-.627-4.509-.323-1.142-.76-2.252-1.363-3.274-.537-.911-1.136-2.116-2.103-2.61-.54-.274-1.136-.411-1.717-.577-1.991-.573-3.962-1.544-5.997-1.577z" fill="#de4b4b"/><path d="m66.161 16.598c.2-1.894-.17-3.713-1.459-5.204-.41-.473-.933-.833-1.481-1.127a8.778 8.778 0 0 0 -6.138-.804c-2.88.69-4.56 2.36-5.327 4.76-.264.825-.418 1.736-.478 2.722l-.006.124a1.599 1.599 0 0 0 -.602-.13c-.625-.02-1.22.406-1.484.982-.266.576-.227 1.269.026 1.851.252.582.702 1.06 1.215 1.424.313.22 1.195.26 1.568.283.378 2.278-.215 3.304 2.58 5.856 1.131 1.033 1.28 1.233 1.346 2.867.034.84.232 1.78.928 2.233.367.239.816.3 1.25.333a11.88 11.88 0 0 0 1.784 0c.455-.036.94-.11 1.284-.416.53-.474.53-1.301.482-2.02-.132-1.966.105-2.028 1.66-2.818 1.41-.717 2.85-2.28 2.893-3.668.025-.795-.182-1.66-.468-2.644-.42-1.448.159-2.708.377-4.2.02-.136.036-.27.051-.405" fill="#d4a181"/><path d="m58.117 6.152c-1.45-.013-2.875.22-4.3.362-2.526.252-4.824 1.875-6.311 3.966a10.134 10.134 0 0 0 -1.112 2.003 10.31 10.31 0 0 0 -.086 7.55c.404 1.047 1.01 2.035 1.434 3.082-.414.333-.745.713-.818 1.233-.206 1.484 1.92 2.502 1.755 3.99-.104.93-1.044 1.481-1.813 2.01-3.152 2.163-.915 5.3 1.833 6.612 1.255.6 2.716.806 4.06.448 1.343-.359 2.544-1.31 3.092-2.596.253-.594.362-1.286.115-1.883-.22-.536-.69-.918-1.1-1.326a7.822 7.822 0 0 1 -1.233-1.609c.178-.128.359-.249.564-.333.514-.21 1.096-.25 1.658-.276-.11-.905-.382-1.228-1.28-2.048-1.42-1.296-1.962-2.198-2.205-3.071a1.807 1.807 0 0 0 -.086-.473c-.012-.04-.027-.08-.041-.119-.093-.608-.111-1.25-.228-2.029.228-.635.72-1.202 1.051-1.813.487-.9.314-1.835.375-2.827.008-.129.016-.264.085-.374.115-.183.35-.237.56-.283a9.038 9.038 0 0 0 2.893-1.198c1.544-.975 4.225-2.097 5.91-3.557.158.047.315.09.472.144.882.303 1.726.722 2.31 1.436.068.083.128.172.187.26.335.998.42 2.067.304 3.164a9.774 9.774 0 0 1 -.052.406c-.045.312.003.052-.062.346.556.965 1.838.136 2.3-.572.686-1.05.122-3.17-.294-4.264-.426-1.123-1.109-2.126-1.844-3.064-.941-1.199-2.451-2.035-4.086-2.323a3.437 3.437 0 0 0 -.718-.045c-.455-.257-.92-.495-1.402-.661-.602-.206-1.248-.262-1.888-.268zm-7.694 10.822c.256 1.41.344 2.78-.315 3.97-.377-.323-.698-.713-.896-1.17-.253-.583-.293-1.277-.028-1.853a1.679 1.679 0 0 1 1.24-.947z" fill="#191847"/></svg>