<svg xmlns="http://www.w3.org/2000/svg" width="100" height="100" viewBox="0 0 100 100">
  <path fill="#ffffff" d="M86.896 50A36.896 36.896 0 0 1 50 86.896 36.896 36.896 0 0 1 13.104 50 36.896 36.896 0 0 1 50 13.104 36.896 36.896 0 0 1 86.896 50z"/>
  <path fill="#d4a181" d="M70.66.098a2.245 2.245 0 0 0-.52.022c-1.525.252-2.848 3.118-1.558 4.345l1.22 1.16.533 2.844 3.107.091-.036-2.947c.641-2.408 1.549-4.039-1.22-5.1-.493-.188-1.008-.38-1.527-.415zM43.734 11.334c-2.018-.05-4.115.542-5.64 1.882-.454.398-.777.907-1.085 1.41-.47.769-.932 1.558-1.13 2.414-.287 1.246.427 3.089-.104 4.166-.357-.137-.725-.307-1.113-.343-.421-.039-.885.104-1.117.456-.314.478-.101 1.108.12 1.635.272.648.713 1.22 1.267 1.654a4.085 4.085 0 0 0 .983.572c.198.08.408.148.565.292.322.293.321.784.386 1.213.185 1.216 1.174 1.989 2.146 2.644.738.497 1.432 1.079 2.165 1.569.713.477 1.51.751 2.133 1.39.754.773.847 2.134 1.713 2.776.679.502 1.648.27 2.47.019.675-.207 1.433-.485 1.698-1.128.152-.37.101-.781.057-1.174-.06-.528-.104-1.067.002-1.591.194-.965 1.011-1.812 1.78-2.397 3-2.28 2.303-5.345 1.02-8.275-1.614-3.68-2.658-8.562-7.46-9.124a9.362 9.362 0 0 0-.856-.06zM10.987 60.132c-.077.233-.324 1.248-.103 1.358.47.236.863.275 1.164.728-.763.362-1.496.532-2.353.571-.749.035-1.581-.105-1.398.926.049.277.25.546.47.762a3.848 3.848 0 0 0 1.999 1.062c.613.118 1.206.096 1.785.37.094.044.134.118.283.114.361-.008 1.03-.42 1.313-.56.284-.142.869-.37.98-.385a42.767 42.767 0 0 0 2.81-.452c-.123-1.038-.22-2.08-.364-3.115a57.742 57.742 0 0 1-2.798-.096c-.441-.368-.883-.734-1.321-1.103-.823-.056-1.644-.138-2.467-.18z"/>
  <path fill="#191847" d="M41.05 83.903c.072.65.153 1.299.234 1.946a37.352 37.352 0 0 0 8.64 1.056 37.352 37.352 0 0 0 19.419-5.484l.137-6.444h-.002L40.71 81.142s.093.493.34 2.76z"/>
  <path fill="#2026a2" d="M71.612 6.241a9.11 9.11 0 0 0-2.762.508c-.16 4.38.74 9.447-.632 13.666-.51 1.568-1.333 3.019-2.641 4.274-3.794 3.64-7.797 7.37-12.578 9.408-.584-.109-1.17-.227-1.587-.57-.518-.424-.651-1.361-.596-2-2.227.279-4.638.656-6.952.86-1.815.162-1.324 1.03-1.844 2.328-.557 1.393-2.32 2.296-3.227 3.415-.84 1.037-1.373 2.323-1.804 3.625a27.805 27.805 0 0 0-.782 2.913 111.104 111.104 0 0 1-5.66 12.342c-.5.919-1.242 1.466-2.106 1.813-1.371.55-3.047.592-4.542.805-2.658.378-4.957.92-7.477 1.668-.038.425.499 6.143.436 6.144l12.233-.052c1.458-.006 2.957-.02 4.309-.561 1.405-.563 2.636-1.477 3.737-2.573a229.867 229.867 0 0 0 1.842 13.543c.247 1.321.383 3.21 1.05 4.383.68 1.193 2.072.814 3.36.823a61.562 61.562 0 0 0 8.986-.59 61.809 61.809 0 0 0 17.263-5.052c.308-.142.632-.302.807-.61.192-.337.157-.769.111-1.166-.254-2.222-.678-4.404-1.165-6.575-.618-2.751-1.334-5.484-1.93-8.25a143.634 143.634 0 0 0-2.008-8.205c-.657-2.366-1.408-4.701-2.35-6.934l.07-.105c3.378-5.07 6.905-10.074 10.198-15.192 2.908-4.518 2.284-9.63 1.993-14.738-.142-2.5-.28-5.14-.836-7.589-.332-1.465-.366-1.603-1.977-1.73a8.937 8.937 0 0 0-.94-.026z"/>
  <path fill="#191847" d="M31.873 15.73a10.35 10.35 0 0 1 2.354-3.77c.824-.846 1.722-1.655 2.805-2.126 2.014-.875 7.857-.011 8.11-2.758.095-1.025 1.555-1.67 2.388-1.056.248.183.43.441.682.619.253.178.63.255.873.054.318-.265.182-.796.446-1.112.328-.392 1.025-.144 1.259.295.134.253.077.594.2.825.095.177.257.213.363.376.241.368.476.67.318 1.146-.063.19-.178.363-.22.557-.079.374.123.736.23 1.099.233.8-.002 1.65-.374 2.428.477.718.883 1.496 1.019 2.296.226 1.33-.395 3.058-.62 4.382-.347-.306-.528-.751-.75-1.157a5.734 5.734 0 0 0-1.993-2.108c-.408-.254-.848-.46-1.238-.741l-.146.078c-.296.165-.6.333-.935.39-1.138.194-2.23.569-3.394.823-1.204.263-2.429.568-3.455 1.248-1.027.68-1.832 1.813-1.797 3.04.015.553.18 1.172-.154 1.613-1.162 1.537-2.48-1.096-3.552-.305-.782.578.192 1.83.697 2.284.448.403.999.681 1.44 1.091.442.41.775 1.028.6 1.603-.042.136-.124.275-.26.314-.163.046-.324-.065-.455-.171-1.84-1.493-3.517-3.286-4.394-5.483-.759-1.904-.693-3.925-.047-5.773"/>
</svg>
